<svg width="59" height="40" viewBox="0 0 59 40" fill="none" xmlns="http://www.w3.org/2000/svg">
<g clip-path="url(#clip0_16_16)">
<path d="M25.6059 27.7878L30.1943 2.90645L53.9797 9.52129L45.0617 33.1944L34.5703 33.1861L25.6059 27.7878Z" fill="#1572B6"/>
<path d="M35.1587 31.1264L43.6368 31.1333L51.2578 10.9035L41.5348 8.19951L35.1587 31.1264Z" fill="#33A9DC"/>
<path d="M39.0885 16.9957L43.0289 18.0916L44.1487 15.1178L39.9365 13.9464L40.7647 10.9684L48.2313 13.0449L47.9379 13.8238L44.9244 21.827L38.2603 19.9737L39.0885 16.9957Z" fill="white"/>
<path d="M36.9561 24.7343L36.9415 24.7344L33.8745 22.9161L34.323 20.4823L31.3335 19.6509L30.4504 24.4425L36.0788 27.8325L36.0944 27.8327L36.9561 24.7343Z" fill="#EBEBEB"/>
<path d="M41.9825 20.8729L40.5151 24.7608L36.9449 24.7333L36.0832 27.8317L42.6581 27.8375L42.8432 27.3472L44.9701 21.7037L41.9825 20.8729Z" fill="white"/>
<path d="M40.7753 10.9714L39.9471 13.9494L32.7541 11.9489L32.8806 11.2627L33.1646 9.71525L33.3154 8.89674L40.7753 10.9714ZM39.0885 16.9957L38.2603 19.9737L34.9856 19.0629L35.1121 18.3767L35.397 16.8295L35.5479 16.011L39.0885 16.9957Z" fill="#EBEBEB"/>
</g>
<g clip-path="url(#clip1_16_16)">
<path d="M10.7323 32.8451L3.95685 8.46819L28.2383 3.99514L30.5904 29.1828L21.1555 33.771L10.7323 32.8451Z" fill="#E44F26"/>
<path d="M20.7822 31.6618L28.4067 27.9541L26.3959 6.43021L16.4709 8.25856L20.7822 31.6618Z" fill="#F1662A"/>
<path d="M18.1642 17.4499L14.1418 18.1909L13.2911 15.1293L17.5908 14.3373L17.0308 11.2974L9.40903 12.7015L9.63217 13.5043L11.9216 21.7429L18.7242 20.4898L18.1642 17.4499ZM19.6184 25.3441L19.6054 25.3505L16.052 25.0605L15.3891 22.6761L12.3374 23.2383L13.6423 27.9316L20.188 28.5133L20.201 28.5069L19.6184 25.3441Z" fill="#EBEBEB"/>
<path d="M18.1533 17.4519L18.7133 20.4917L22.4564 19.8022L22.8306 23.8097L19.6081 25.349L20.1908 28.5118L26.1046 25.6358L26.0553 25.1141L25.2951 16.9802L25.2194 16.1502L18.1533 17.4519ZM17.02 11.2994L17.5799 14.3393L24.9224 12.9867L24.8576 12.2929L24.7124 10.7263L24.6348 9.89663L17.02 11.2994Z" fill="white"/>
</g>
<defs>
<clipPath id="clip0_16_16">
<rect width="32" height="32" fill="white" transform="translate(27.2079) rotate(15.5416)"/>
</clipPath>
<clipPath id="clip1_16_16">
<rect width="32" height="32" fill="white" transform="translate(0 7.16345) rotate(-10.4378)"/>
</clipPath>
</defs>
</svg>
