<svg width="541" height="351" viewBox="0 0 541 351" fill="none" xmlns="http://www.w3.org/2000/svg">
<path d="M272.5 30C162.931 30 70.1819 90.5392 39 174C70.1814 257.46 162.931 318 272.5 318C382.068 318 474.818 257.46 506 174C474.818 90.5399 382.068 30 272.5 30Z" stroke="#F0F8FF" stroke-width="49" stroke-linecap="round" stroke-linejoin="round"/>
<ellipse cx="271.909" cy="175" rx="77.9086" ry="77" fill="#F0F8FF"/>
<path d="M272.5 231C240.744 231 215 205.704 215 174.5C215 143.296 240.744 118 272.5 118C304.256 118 330 143.296 330 174.5C330 205.704 304.256 231 272.5 231ZM308.948 198.777H298.467C297.262 203.746 295.699 208.315 293.843 212.354C297.388 210.417 300.682 207.984 303.629 205.088C305.622 203.13 307.397 201.017 308.948 198.777ZM316.523 174.5C316.523 170.724 316.031 167.023 315.083 163.465H300.7C301.06 167.034 301.25 170.723 301.25 174.5C301.25 178.277 301.06 181.966 300.7 185.535H315.083C316.031 181.977 316.523 178.276 316.523 174.5ZM272.5 131.242C271.332 131.242 267.772 133.498 264.224 140.47C262.755 143.359 261.494 146.649 260.462 150.223H284.538C283.506 146.649 282.245 143.359 280.775 140.47C277.228 133.498 273.668 131.242 272.5 131.242ZM257.858 163.465C257.444 167.051 257.227 170.754 257.227 174.5C257.227 178.246 257.444 181.949 257.858 185.535H287.142C287.556 181.949 287.773 178.246 287.773 174.5C287.773 170.754 287.556 167.051 287.142 163.465H257.858ZM228.477 174.5C228.477 178.276 228.969 181.977 229.917 185.535H244.3C243.94 181.966 243.75 178.277 243.75 174.5C243.75 170.723 243.94 167.034 244.3 163.465H229.917C228.969 167.023 228.477 170.724 228.477 174.5ZM272.5 217.758C273.668 217.758 277.228 215.502 280.776 208.53C282.245 205.641 283.506 202.351 284.538 198.777H260.462C261.494 202.351 262.755 205.641 264.224 208.53C267.772 215.502 271.332 217.758 272.5 217.758ZM251.157 212.354C249.301 208.315 247.738 203.746 246.533 198.777H236.052C237.603 201.017 239.378 203.13 241.371 205.088C244.318 207.984 247.612 210.417 251.157 212.354ZM236.052 150.223H246.533C247.738 145.254 249.301 140.685 251.157 136.646C247.612 138.583 244.318 141.016 241.371 143.912C239.378 145.87 237.603 147.983 236.052 150.223ZM293.843 136.646C295.699 140.685 297.262 145.254 298.467 150.223H308.948C307.397 147.983 305.622 145.87 303.629 143.912C300.682 141.016 297.388 138.583 293.843 136.646Z" fill="url(#paint0_linear_5_3)"/>
<defs>
<linearGradient id="paint0_linear_5_3" x1="272.5" y1="231" x2="272.5" y2="118" gradientUnits="userSpaceOnUse">
<stop offset="0.421875" stop-color="#AD00FF"/>
<stop offset="1" stop-color="#5A4763" stop-opacity="0"/>
</linearGradient>
</defs>
</svg>
